<svg viewBox="0 0 682 76" xmlns="http://www.w3.org/2000/svg">
<path d="M 54 23.6 C 48.6 23.9 43.2 24.2 37.9 24.3 C 32.7 24.5 27.3 24.9 22 25.4 L 22.7 33.4 L 38.3 34.5 L 40.9 43.8 C 38.1 44.5 35.3 45 32.4 45.3 C 29.6 45.7 26.8 46.1 23.9 46.7 C 24.6 51.3 25 56 25.3 60.7 C 25.5 65.3 25.6 70 25.6 74.7 L 1 75.5 C 1.3 68.2 1.5 61 1.5 53.8 C 1.6 46.5 1.6 39.3 1.6 31.9 V 23.6 V 4.8 C 5.3 4.7 8.8 4.6 12.3 4.6 C 15.9 4.4 19.5 4.4 23.1 4.4 C 28 4.4 32.8 4.5 37.7 4.8 C 42.6 4.9 47.5 5.2 52.4 5.4 C 52.8 8.4 53.2 11.4 53.5 14.5 C 53.8 17.5 54 20.5 54 23.6 Z M 99.9 0.9 C 99.4 7 98.9 13 98.4 19 C 98 25 97.6 31 97.3 37.1 C 97 42.6 96.6 48.1 96.3 53.5 C 95.9 58.9 95.6 64.3 95.3 69.8 L 81 70.6 C 81 64.9 81 59.3 81 53.7 C 81 48.1 81 42.4 80.9 36.7 C 80.8 31 80.5 25.4 80.1 19.8 C 79.8 14.2 79.4 8.6 79 2.9 L 99.9 0.9 Z M 142.2 10.3 C 142.2 11.5 142 12.7 141.4 13.8 C 140.9 14.9 140.2 15.8 139.2 16.7 C 138.4 17.5 137.4 18.1 136.2 18.6 C 135.1 19.1 134 19.3 132.9 19.3 C 131.6 19.3 130.4 19 129.3 18.4 C 128.2 17.9 127.3 17.2 126.5 16.3 C 125.7 15.4 125.1 14.4 124.6 13.3 C 124.2 12.1 124 10.9 124 9.7 C 124 8.5 124.2 7.4 124.6 6.4 C 125.1 5.4 125.7 4.5 126.5 3.7 C 127.3 3 128.2 2.4 129.2 1.9 C 130.3 1.5 131.4 1.3 132.6 1.3 C 133.8 1.3 134.9 1.5 136.1 2 C 137.2 2.5 138.3 3.1 139.1 4 C 140.1 4.8 140.8 5.8 141.4 6.9 C 142 8 142.2 9.1 142.2 10.3 Z M 146.1 26.2 C 145.8 29.5 145.5 32.8 145.3 36.1 C 145.1 39.3 145 42.6 144.8 45.8 C 144.5 49.6 144.1 53.4 143.5 57.2 C 142.9 60.9 142.2 64.7 141.5 68.4 L 127.1 69.9 C 127.1 67.9 127.1 65.9 127.1 64 C 127.2 62.1 127.2 60.1 127.2 58.1 C 127.2 53 127.1 47.8 127 42.7 C 126.8 37.6 126.6 32.5 126.4 27.3 C 129.7 27.2 133 27 136.1 26.8 C 139.4 26.5 142.7 26.3 146.1 26.2 Z M 234.9 23.6 C 234.9 26.5 234.5 29.3 233.8 31.9 C 233.3 32 232 32.1 229.8 32.2 C 227.7 32.3 225.2 32.4 222.2 32.6 C 219.2 32.7 216 32.9 212.6 33.2 C 209.2 33.3 206.1 33.6 203.1 33.8 C 200.3 34.1 197.8 34.3 195.7 34.7 C 193.7 34.9 192.6 35.2 192.3 35.4 C 191.3 36.3 190.6 37.3 190.1 38.6 C 189.6 39.8 189.3 41.1 189.3 42.3 C 189.3 43.1 189.4 43.7 189.5 44.1 C 189.7 44.5 190 44.9 190.4 45.4 C 190.6 45.6 191.2 45.8 192.3 45.9 C 193.5 46 194.7 46.1 196.1 46.2 C 197.5 46.3 198.8 46.3 199.9 46.4 C 201.1 46.4 201.8 46.4 202 46.4 C 206.5 46.4 211 46.3 215.5 46.1 C 220 45.9 224.5 45.7 229 45.3 L 229.8 61.5 C 223.5 62 217.2 62.5 210.9 63 C 204.7 63.4 198.4 63.6 192.1 63.6 C 191.8 63.6 191.3 63.6 190.7 63.6 C 190.1 63.6 189.5 63.6 188.8 63.6 C 188.1 63.6 187.4 63.5 186.8 63.4 C 186.2 63.4 185.8 63.3 185.5 63.3 C 184.2 62.9 182.9 62.5 181.6 62 C 180.3 61.5 179.1 60.9 178 60.3 C 176.9 59.5 175.9 58.6 175 57.6 C 174.2 56.6 173.6 55.4 173.2 54 C 173 53 172.8 51.8 172.6 50.3 C 172.4 48.8 172.3 47.2 172.3 45.5 C 172.2 43.9 172.2 42.3 172.1 40.8 C 172.1 39.2 172.1 37.9 172.1 36.8 C 172.1 34.4 172.1 32.1 172.2 30 C 172.3 27.8 172.6 25.9 173.2 24.2 C 173.8 22.3 174.8 20.8 176.2 19.4 C 177.7 17.9 179.7 16.7 182.3 15.6 C 183.5 15.1 185.3 14.8 187.7 14.5 C 190 14.2 192.5 14 195.1 13.8 C 197.7 13.7 200.2 13.5 202.6 13.5 C 204.9 13.4 206.8 13.4 208.1 13.4 C 212.5 13.4 216.8 13.5 221.1 13.7 C 225.5 13.8 229.9 14.1 234.3 14.4 C 234.4 16 234.6 17.5 234.7 19.1 C 234.8 20.6 234.9 22.1 234.9 23.6 Z M 323.2 21.3 L 299.1 38.8 C 299.3 39.5 299.6 40.8 300.2 42.4 C 300.8 44.1 301.4 45.8 302.1 47.6 C 302.8 49.3 303.5 51 304.2 52.6 C 305 54.1 305.8 55 306.5 55.5 C 306.9 55.8 307.5 56 308.2 56.2 C 308.9 56.4 309.5 56.6 310.2 56.7 C 311 56.8 311.7 56.9 312.4 57 C 313.1 57 313.8 57 314.3 57 C 315.1 57 316 56.9 317 56.9 C 317.9 56.8 318.8 56.7 319.7 56.6 C 319.6 57.4 319.5 58.3 319.4 59.1 C 319.4 59.9 319.3 60.8 319.3 61.7 C 319.3 63.2 319.4 64.7 319.4 66.2 C 319.5 67.7 319.5 69.1 319.5 70.6 C 319.1 70.6 318.3 70.7 317.2 70.8 C 316.1 70.9 314.9 71 313.4 71.1 C 312 71.2 310.6 71.3 309 71.4 C 307.4 71.5 306 71.7 304.6 71.8 C 303.3 71.8 302.1 71.9 301.1 71.9 C 300.2 71.9 299.6 71.8 299.4 71.7 C 298.3 71.2 297.3 70.7 296.3 70.1 C 295.3 69.5 294.4 68.8 293.7 67.8 C 293.4 67.3 292.9 66.1 292.1 64.2 C 291.4 62.3 290.7 60.1 289.9 57.8 C 289.1 55.5 288.4 53.3 287.7 51.3 C 287.1 49.3 286.7 48.1 286.5 47.5 L 277.5 53.3 V 69.6 L 258.9 71.2 C 259.3 62.5 259.7 53.8 260.2 45.2 C 260.6 36.5 260.8 27.7 260.8 18.9 C 260.8 16.2 260.8 13.6 260.7 10.9 C 260.7 8.3 260.7 5.6 260.6 2.9 C 263.2 3.4 265.7 3.7 268.2 3.8 C 270.8 3.9 273.4 4.1 275.9 4.4 V 39.4 C 280.8 36.4 285.5 33.4 290.2 30.3 C 294.9 27.1 299.4 23.7 303.8 19.9 C 307.1 20.3 310.3 20.6 313.4 20.8 C 316.6 21 319.9 21.2 323.2 21.3 Z M 381.6 6.5 C 381.6 8.3 381.5 10.1 381.3 11.9 C 381.2 13.6 381 15.3 380.8 17.1 C 380.5 17.1 380 17 379.3 17 C 378.4 17 377.4 17.1 376.3 17.2 C 375.2 17.3 374.1 17.6 373 17.9 C 371.9 18.1 370.9 18.5 369.9 19 C 368.9 19.4 368.1 20 367.5 20.7 C 366.8 21.5 366.1 22.5 365.4 23.7 C 364.8 24.9 364.5 26 364.5 27.2 C 364.5 27.7 364.5 28 364.6 28.3 L 375.1 28.8 C 375.2 29.8 375.3 30.8 375.4 31.8 C 375.6 32.9 375.6 33.9 375.6 34.9 C 375.6 35.9 375.6 36.9 375.5 37.8 C 375.5 38.8 375.4 39.7 375.3 40.7 L 366.2 42.5 C 366.7 47.9 367.3 53.3 367.8 58.6 C 368.4 63.8 368.8 69.1 369.1 74.5 C 368.4 74.5 367.6 74.5 366.9 74.4 C 366.1 74.4 365.4 74.4 364.7 74.4 C 361.5 74.4 358.3 74.5 355.1 74.7 C 352 74.9 348.8 75.1 345.6 75.2 L 346.5 44.1 L 339.4 44.5 V 42 C 339.4 39.8 339.6 37.6 339.8 35.5 C 340.1 33.4 340.2 31.2 340.4 29 C 342.4 29 343.8 28.9 344.8 28.8 C 345.7 28.7 346.3 28.6 346.6 28.5 C 347 28.3 347.1 28.2 347 28 C 347.1 25.9 347.3 23.8 347.6 21.9 C 347.8 20.3 348 18.6 348.3 16.9 C 348.6 15.3 349.1 13.9 349.6 13 C 351.1 10 352.9 7.7 355 6.2 C 357.1 4.5 359.4 3.4 361.8 2.7 C 364.3 1.9 367 1.5 369.7 1.5 C 372.5 1.3 375.4 1.3 378.4 1.3 C 378.9 1.3 379.4 1.3 379.8 1.3 C 380.3 1.3 380.8 1.3 381.3 1.4 C 381.5 3.2 381.6 4.9 381.6 6.5 Z M 420.1 10.3 C 420.1 11.5 419.8 12.7 419.2 13.8 C 418.7 14.9 418 15.8 417.1 16.7 C 416.2 17.5 415.2 18.1 414.1 18.6 C 413 19.1 411.8 19.3 410.7 19.3 C 409.5 19.3 408.3 19 407.2 18.4 C 406.1 17.9 405.2 17.2 404.3 16.3 C 403.5 15.4 402.9 14.4 402.5 13.3 C 402 12.1 401.8 10.9 401.8 9.7 C 401.8 8.5 402 7.4 402.5 6.4 C 403 5.4 403.6 4.5 404.3 3.7 C 405.2 3 406.1 2.4 407.1 1.9 C 408.1 1.5 409.2 1.3 410.4 1.3 C 411.6 1.3 412.8 1.5 413.9 2 C 415.1 2.5 416.1 3.1 417 4 C 417.9 4.8 418.7 5.8 419.2 6.9 C 419.8 8 420.1 9.1 420.1 10.3 Z M 423.9 26.2 C 423.6 29.5 423.4 32.8 423.2 36.1 C 423 39.3 422.8 42.6 422.6 45.8 C 422.4 49.6 421.9 53.4 421.3 57.2 C 420.7 60.9 420.1 64.7 419.3 68.4 L 405 69.9 C 405 67.9 405 65.9 405 64 C 405.1 62.1 405.1 60.1 405.1 58.1 C 405.1 53 405 47.8 404.8 42.7 C 404.6 37.6 404.4 32.5 404.2 27.3 C 407.6 27.2 410.8 27 414 26.8 C 417.2 26.5 420.6 26.3 423.9 26.2 Z M 507 45.2 C 507 46.8 507 48.6 507 50.3 C 507 52 507 53.7 506.9 55.4 L 485.9 56.7 C 486.2 53.4 486.4 50.2 486.5 47 C 486.7 43.8 486.8 40.6 486.8 37.3 C 486.8 37 486.8 36.4 486.8 35.7 C 486.8 34.9 486.8 34.2 486.7 33.3 C 486.6 32.5 486.6 31.7 486.5 30.9 C 486.4 30.2 486.4 29.6 486.3 29.3 C 486 28.4 485.7 27.7 485.3 27.1 C 485 26.4 484.6 25.9 484.1 25.6 C 483.6 25.2 483.1 24.9 482.4 24.8 C 481.7 24.6 480.9 24.5 479.9 24.5 C 479.1 24.5 478.1 24.6 476.9 24.7 C 475.8 24.8 474.7 25 473.5 25.3 C 472.3 25.5 471.2 25.8 470.1 26.2 C 469 26.6 468.3 27 467.9 27.5 L 467.7 55.2 C 467.5 54.9 467.2 54.8 466.5 54.8 C 466 54.8 465.6 54.8 465.3 54.8 C 463.4 54.8 461.5 54.9 459.5 55.1 C 457.5 55.2 455.6 55.4 453.7 55.7 C 452.9 48.3 452.2 40.9 451.5 33.6 C 450.9 26.3 450.2 19 449.4 11.6 C 450.6 11.5 451.9 11.5 453.1 11.5 C 454.4 11.4 455.6 11.4 456.9 11.4 C 458.5 11.4 460.1 11.5 461.8 11.6 C 463.4 11.7 465.1 11.7 466.7 11.8 L 467.4 19 C 469.1 16.1 471.5 13.7 474.5 11.8 C 477.5 9.8 480.7 8.9 484.2 8.9 C 485.9 8.9 487.7 9 489.6 9.2 C 491.5 9.3 493.3 9.7 494.9 10.3 C 496.7 10.8 498.3 11.6 499.8 12.6 C 501.4 13.6 502.7 14.9 503.8 16.5 C 504.3 17.2 504.7 18.3 505 19.8 C 505.4 21.3 505.7 22.9 505.9 24.8 C 506.2 26.6 506.4 28.6 506.5 30.6 C 506.7 32.7 506.8 34.7 506.9 36.5 C 506.9 38.4 506.9 40.1 506.9 41.7 C 507 43.2 507 44.3 507 45.2 Z M 599.1 20.9 C 599.1 23.5 599.1 26.1 599.1 28.7 C 599.1 31.2 599.1 33.8 599 36.4 C 598.8 42.2 598.6 47.9 598.2 53.6 C 597.8 59.2 597.4 64.9 597 70.6 C 591.3 70.9 585.7 71.3 580.1 71.5 C 574.6 71.8 568.9 71.9 563.2 71.9 C 562.5 71.9 561.3 71.9 559.7 71.9 C 558.1 71.8 556.3 71.8 554.4 71.7 C 552.6 71.6 550.9 71.5 549.3 71.4 C 547.6 71.2 546.5 71 545.7 70.7 C 540.9 68.9 537.3 66.6 534.9 63.6 C 532.6 60.6 531.5 56.5 531.5 51.3 V 49.8 C 531.6 47.4 531.8 45.4 532 43.6 C 532.3 41.8 532.7 40.1 533.3 38.6 C 534 37.1 534.9 35.7 536.1 34.5 C 537.2 33.2 538.8 31.8 540.8 30.5 C 542.2 29.6 543.8 28.8 545.7 28.2 C 547.6 27.6 549.5 27 551.5 26.6 C 553.6 26.2 555.6 25.8 557.5 25.7 C 559.5 25.5 561.3 25.4 563 25.4 C 566 25.4 568.9 25.6 571.9 26 C 574.9 26.5 577.8 27.1 580.8 28 C 580.5 23.9 580.2 19.8 579.9 15.8 C 579.7 11.8 579.4 7.7 579 3.6 C 582.4 3.3 585.7 3 589 2.6 C 592.3 2.2 595.6 1.8 599 1.5 C 599 4.7 599.1 8 599.1 11.2 C 599.1 14.4 599.1 17.6 599.1 20.9 Z M 584.8 49.2 C 584.8 47.8 584.8 46.3 584.8 44.9 C 584.8 43.4 584.8 42 584.7 40.6 C 580.8 40.4 576.8 40.3 572.9 40.3 C 572.3 40.3 571.1 40.3 569.3 40.4 C 567.5 40.4 565.6 40.4 563.5 40.6 C 561.5 40.6 559.6 40.8 557.9 41 C 556.1 41.2 555 41.5 554.5 41.8 C 553.6 42.5 553 43.4 552.7 44.7 C 552.6 45.9 552.5 47.1 552.5 48.2 C 552.5 48.7 552.5 49.3 552.6 50.2 C 552.6 51 552.7 51.9 552.8 52.8 C 553 53.7 553.2 54.6 553.5 55.4 C 553.7 56.1 554 56.7 554.3 57.1 C 554.5 57.3 554.8 57.4 555.3 57.5 C 555.8 57.7 556.3 57.8 556.9 57.8 C 557.4 57.9 558 57.9 558.5 57.9 C 559 57.9 559.5 57.9 559.8 57.9 C 563.3 57.9 566.9 57.8 570.4 57.4 C 573.9 57.1 577.4 56.7 581 56.2 C 581.5 56.1 582.1 56 582.7 56 C 583.4 56 584.1 55.8 584.6 55.7 V 55.5 C 584.6 55.4 584.6 55.3 584.7 55.3 C 584.8 54.3 584.9 53.3 584.8 52.3 C 584.8 51.3 584.8 50.3 584.8 49.2 Z M 681.3 33.4 V 35.6 L 663.2 36.4 C 663.4 35.6 663.5 34.7 663.5 33.6 C 663.5 32.1 663.3 31.1 662.8 30.6 C 662.4 30.1 661.4 29.9 659.9 29.9 C 657.8 29.9 655.5 30.3 652.9 31 C 650.3 31.8 648.1 32.5 646.2 33.2 C 645.8 35.9 645.6 38.7 645.4 41.4 C 645.2 44.2 645.1 46.9 645.1 49.7 C 645.1 52.7 645.1 55.8 645.1 58.8 C 645.2 61.8 645.2 64.9 645.3 67.9 L 629.2 69 C 628.9 65 628.6 61 628.2 57.1 C 627.9 53.1 627.7 49.1 627.4 45.1 C 627.1 39.8 626.7 34.5 626.2 29.2 C 625.7 23.9 625.2 18.6 624.7 13.2 C 628.2 13.4 631.8 13.8 635.3 14.3 C 638.8 14.8 642.4 15.3 646 16 L 645.5 23.9 C 647.4 22.4 649.2 21.1 650.8 20 C 652.6 18.9 654.3 18 656.1 17.2 C 657.9 16.5 659.8 15.9 661.8 15.6 C 663.8 15.3 666 15.1 668.5 15.1 C 670.1 15.1 671.8 15.3 673.5 15.6 C 675.3 15.9 676.8 16.7 678 18 C 678.7 18.7 679.2 19.7 679.6 21.1 C 680.1 22.4 680.4 23.9 680.7 25.5 C 680.9 27 681.1 28.5 681.1 30 C 681.2 31.4 681.3 32.6 681.3 33.4 Z" fill="white"/>
</svg>
